<?xml version="1.0" encoding="UTF-8" standalone="no"?>
<!DOCTYPE svg PUBLIC "-//W3C//DTD SVG 1.1//EN"
 "http://www.w3.org/Graphics/SVG/1.1/DTD/svg11.dtd">
<!-- Generated by graphviz version 2.40.1 (20161225.0304)
 -->
<!-- Title: processos Pages: 1 -->
<svg width="1056pt" height="1020pt"
 viewBox="14.40 14.40 1041.40 1005.40" xmlns="http://www.w3.org/2000/svg" xmlns:xlink="http://www.w3.org/1999/xlink">
<g id="graph0" class="graph" transform="scale(1 1) rotate(0) translate(18.4 1001.4)">
<title>processos</title>
<polygon fill="#ffffff" stroke="transparent" points="-4,4 -4,-987 1023,-987 1023,4 -4,4"/>
<!-- centro -->
<g id="node1" class="node">
<title>centro</title>
<ellipse fill="#d9eaf7" stroke="#1f4e79" stroke-width="3" cx="455.5" cy="-455.5" rx="93.5" ry="93.5"/>
<text text-anchor="middle" x="455.5" y="-460.9" font-family="Arial" font-size="18.00" fill="#000000">Processos</text>
<text text-anchor="middle" x="455.5" y="-439.3" font-family="Arial" font-size="18.00" fill="#000000">pedogenéticos</text>
</g>
<!-- latolizacao -->
<g id="node2" class="node">
<title>latolizacao</title>
<ellipse fill="#ffffff" stroke="#555555" stroke-width="1.5" cx="455.5" cy="-815.5" rx="59.5" ry="59.5"/>
<text text-anchor="middle" x="455.5" y="-827.2" font-family="Arial" font-size="13.00" fill="#000000">Latolização</text>
<text text-anchor="middle" x="455.5" y="-811.6" font-family="Arial" font-size="13.00" fill="#000000">ou</text>
<text text-anchor="middle" x="455.5" y="-796" font-family="Arial" font-size="13.00" fill="#000000">Ferralitização</text>
</g>
<!-- centro&#45;&gt;latolizacao -->
<g id="edge1" class="edge">
<title>centro&#45;&gt;latolizacao</title>
<path fill="none" stroke="#777777" stroke-width="1.6" d="M446.0964,-548.6283C434.9611,-662.3028 433.5564,-700.8412 441.8824,-750.2096"/>
<polygon fill="#777777" stroke="#777777" stroke-width="1.6" points="439.4962,-750.7867 443.1218,-757.2565 444.3222,-749.9379 439.4962,-750.7867"/>
</g>
<!-- paludizacao -->
<g id="node3" class="node">
<title>paludizacao</title>
<ellipse fill="#ffffff" stroke="#555555" stroke-width="1.5" cx="203.5" cy="-743.5" rx="59.5" ry="59.5"/>
<text text-anchor="middle" x="203.5" y="-739.6" font-family="Arial" font-size="13.00" fill="#000000">Paludização</text>
</g>
<!-- centro&#45;&gt;paludizacao -->
<g id="edge2" class="edge">
<title>centro&#45;&gt;paludizacao</title>
<path fill="none" stroke="#777777" stroke-width="1.6" d="M387.8488,-520.3526C295.0787,-609.6739 267.2449,-639.4557 237.7416,-685.8188"/>
<polygon fill="#777777" stroke="#777777" stroke-width="1.6" points="235.5924,-684.6342 233.9416,-691.8646 239.741,-687.2417 235.5924,-684.6342"/>
</g>
<!-- podzolizacao -->
<g id="node4" class="node">
<title>podzolizacao</title>
<ellipse fill="#ffffff" stroke="#555555" stroke-width="1.5" cx="707.5" cy="-743.5" rx="59.5" ry="59.5"/>
<text text-anchor="middle" x="707.5" y="-739.6" font-family="Arial" font-size="13.00" fill="#000000">Podzolização</text>
</g>
<!-- centro&#45;&gt;podzolizacao -->
<g id="edge3" class="edge">
<title>centro&#45;&gt;podzolizacao</title>
<path fill="none" stroke="#777777" stroke-width="1.6" d="M514.67,-528.3944C595.6348,-627.9562 622.5975,-659.7243 659.4978,-696.7727"/>
<polygon fill="#777777" stroke="#777777" stroke-width="1.6" points="657.8494,-698.589 664.5339,-701.8014 661.3117,-695.1216 657.8494,-698.589"/>
</g>
<!-- gleizacao -->
<g id="node5" class="node">
<title>gleizacao</title>
<ellipse fill="#ffffff" stroke="#555555" stroke-width="1.5" cx="851.5" cy="-563.5" rx="59.5" ry="59.5"/>
<text text-anchor="middle" x="851.5" y="-559.6" font-family="Arial" font-size="13.00" fill="#000000">Gleização</text>
</g>
<!-- centro&#45;&gt;gleizacao -->
<g id="edge4" class="edge">
<title>centro&#45;&gt;gleizacao</title>
<path fill="none" stroke="#777777" stroke-width="1.6" d="M546.7038,-476.4782C690.0708,-509.5757 732.428,-520.3931 788.4793,-540.2133"/>
<polygon fill="#777777" stroke="#777777" stroke-width="1.6" points="787.9742,-542.6342 795.3904,-542.6772 789.6196,-538.0187 787.9742,-542.6342"/>
</g>
<!-- ferrolise -->
<g id="node6" class="node">
<title>ferrolise</title>
<ellipse fill="#ffffff" stroke="#555555" stroke-width="1.5" cx="851.5" cy="-347.5" rx="59.5" ry="59.5"/>
<text text-anchor="middle" x="851.5" y="-343.6" font-family="Arial" font-size="13.00" fill="#000000">Ferrólise</text>
</g>
<!-- centro&#45;&gt;ferrolise -->
<g id="edge5" class="edge">
<title>centro&#45;&gt;ferrolise</title>
<path fill="none" stroke="#777777" stroke-width="1.6" d="M543.4776,-423.5133C682.1457,-373.361 723.0665,-360.8377 784.7273,-353.6285"/>
<polygon fill="#777777" stroke="#777777" stroke-width="1.6" points="785.2728,-356.0327 791.9557,-352.8168 784.726,-351.1633 785.2728,-356.0327"/>
</g>
<!-- melanizacao -->
<g id="node7" class="node">
<title>melanizacao</title>
<ellipse fill="#ffffff" stroke="#555555" stroke-width="1.5" cx="707.5" cy="-167.5" rx="59.5" ry="59.5"/>
<text text-anchor="middle" x="707.5" y="-163.6" font-family="Arial" font-size="13.00" fill="#000000">Melanização</text>
</g>
<!-- centro&#45;&gt;melanizacao -->
<g id="edge6" class="edge">
<title>centro&#45;&gt;melanizacao</title>
<path fill="none" stroke="#777777" stroke-width="1.6" d="M510.1365,-379.5636C585.846,-274.8628 611.4398,-243.4862 654.5378,-208.1535"/>
<polygon fill="#777777" stroke="#777777" stroke-width="1.6" points="656.2716,-209.902 660.169,-203.5922 653.1875,-206.0944 656.2716,-209.902"/>
</g>
<!-- lessivagem -->
<g id="node8" class="node">
<title>lessivagem</title>
<ellipse fill="#ffffff" stroke="#555555" stroke-width="1.5" cx="455.5" cy="-59.5" rx="59.5" ry="59.5"/>
<text text-anchor="middle" x="455.5" y="-71.2" font-family="Arial" font-size="13.00" fill="#000000">Argiluviação</text>
<text text-anchor="middle" x="455.5" y="-55.6" font-family="Arial" font-size="13.00" fill="#000000">ou</text>
<text text-anchor="middle" x="455.5" y="-40" font-family="Arial" font-size="13.00" fill="#000000">Lessivagem</text>
</g>
<!-- centro&#45;&gt;lessivagem -->
<g id="edge7" class="edge">
<title>centro&#45;&gt;lessivagem</title>
<path fill="none" stroke="#777777" stroke-width="1.6" d="M449.5008,-361.9551C440.8787,-224.4393 439.8347,-182.2943 446.3689,-125.5985"/>
<polygon fill="#777777" stroke="#777777" stroke-width="1.6" points="448.8066,-125.8458 447.2033,-118.6049 443.9412,-125.2653 448.8066,-125.8458"/>
</g>
<!-- plintizacao -->
<g id="node9" class="node">
<title>plintizacao</title>
<ellipse fill="#ffffff" stroke="#555555" stroke-width="1.5" cx="203.5" cy="-167.5" rx="59.5" ry="59.5"/>
<text text-anchor="middle" x="203.5" y="-171.4" font-family="Arial" font-size="13.00" fill="#000000">Plintização</text>
<text text-anchor="middle" x="203.5" y="-155.8" font-family="Arial" font-size="13.00" fill="#000000">e Laterização</text>
</g>
<!-- centro&#45;&gt;plintizacao -->
<g id="edge8" class="edge">
<title>centro&#45;&gt;plintizacao</title>
<path fill="none" stroke="#777777" stroke-width="1.6" d="M392.2745,-385.9302C306.1219,-291.0459 278.3467,-259.7957 245.4986,-219.6651"/>
<polygon fill="#777777" stroke="#777777" stroke-width="1.6" points="247.362,-218.0734 241.0378,-214.1995 243.5659,-221.1718 247.362,-218.0734"/>
</g>
<!-- vertizacao -->
<g id="node10" class="node">
<title>vertizacao</title>
<ellipse fill="#ffffff" stroke="#555555" stroke-width="1.5" cx="59.5" cy="-347.5" rx="59.5" ry="59.5"/>
<text text-anchor="middle" x="59.5" y="-343.6" font-family="Arial" font-size="13.00" fill="#000000">Vertização</text>
</g>
<!-- centro&#45;&gt;vertizacao -->
<g id="edge9" class="edge">
<title>centro&#45;&gt;vertizacao</title>
<path fill="none" stroke="#777777" stroke-width="1.6" d="M365.6391,-428.8798C224.6931,-387.1927 182.4477,-375.2668 125.0531,-362.052"/>
<polygon fill="#777777" stroke="#777777" stroke-width="1.6" points="125.3411,-359.6047 117.971,-360.432 124.2484,-364.3813 125.3411,-359.6047"/>
</g>
<!-- sulfurizacao -->
<g id="node11" class="node">
<title>sulfurizacao</title>
<ellipse fill="#ffffff" stroke="#555555" stroke-width="1.5" cx="59.5" cy="-563.5" rx="59.5" ry="59.5"/>
<text text-anchor="middle" x="59.5" y="-575.2" font-family="Arial" font-size="13.00" fill="#000000">Sulfidização e</text>
<text text-anchor="middle" x="59.5" y="-559.6" font-family="Arial" font-size="13.00" fill="#000000">Sulfurização</text>
<text text-anchor="middle" x="59.5" y="-544" font-family="Arial" font-size="13.00" fill="#000000">(Tiomorfismo)</text>
</g>
<!-- centro&#45;&gt;sulfurizacao -->
<g id="edge10" class="edge">
<title>centro&#45;&gt;sulfurizacao</title>
<path fill="none" stroke="#777777" stroke-width="1.6" d="M363.8408,-475.1439C219.8421,-506.1721 177.7584,-516.6788 121.5155,-538.3204"/>
<polygon fill="#777777" stroke="#777777" stroke-width="1.6" points="120.5806,-536.0551 114.9431,-540.874 122.3552,-540.6225 120.5806,-536.0551"/>
</g>
<!-- sodificacao -->
<g id="node12" class="node">
<title>sodificacao</title>
<ellipse fill="#ffffff" stroke="#555555" stroke-width="1.5" cx="203.5" cy="-923.5" rx="59.5" ry="59.5"/>
<text text-anchor="middle" x="203.5" y="-927.4" font-family="Arial" font-size="13.00" fill="#000000">Sodificação e</text>
<text text-anchor="middle" x="203.5" y="-911.8" font-family="Arial" font-size="13.00" fill="#000000">Solodização</text>
</g>
<!-- centro&#45;&gt;sodificacao -->
<g id="edge11" class="edge">
<title>centro&#45;&gt;sodificacao</title>
<path fill="none" stroke="#777777" stroke-width="1.6" d="M405.4277,-534.8204C282.833,-729.3366 258.7022,-771.6071 225.8826,-860.6294"/>
<polygon fill="#777777" stroke="#777777" stroke-width="1.6" points="223.5084,-859.9881 223.4007,-867.4037 228.1093,-861.6738 223.5084,-859.9881"/>
</g>
<!-- leucinização -->
<g id="node13" class="node">
<title>leucinização</title>
<ellipse fill="#ffffff" stroke="#555555" stroke-width="1.5" cx="707.5" cy="-923.5" rx="59.5" ry="59.5"/>
<text text-anchor="middle" x="707.5" y="-919.6" font-family="Arial" font-size="13.00" fill="#000000">Leucinização</text>
</g>
<!-- centro&#45;&gt;leucinização -->
<g id="edge12" class="edge">
<title>centro&#45;&gt;leucinização</title>
<path fill="none" stroke="#777777" stroke-width="1.6" d="M496.4924,-539.7804C597.1316,-746.4709 619.924,-790.432 670.404,-867.6562"/>
<polygon fill="#777777" stroke="#777777" stroke-width="1.6" points="668.5207,-869.2521 674.4076,-873.7629 672.6185,-866.5655 668.5207,-869.2521"/>
</g>
<!-- salinizacao -->
<g id="node14" class="node">
<title>salinizacao</title>
<ellipse fill="#ffffff" stroke="#555555" stroke-width="1.5" cx="959.5" cy="-743.5" rx="59.5" ry="59.5"/>
<text text-anchor="middle" x="959.5" y="-739.6" font-family="Arial" font-size="13.00" fill="#000000">Salinização</text>
</g>
<!-- centro&#45;&gt;salinizacao -->
<g id="edge13" class="edge">
<title>centro&#45;&gt;salinizacao</title>
<path fill="none" stroke="#777777" stroke-width="1.6" d="M537.0442,-501.4889C767.0001,-631.1925 811.6804,-656.5971 901.8996,-709.5969"/>
<polygon fill="#777777" stroke="#777777" stroke-width="1.6" points="900.9171,-711.8612 908.1934,-713.2956 903.3997,-707.6367 900.9171,-711.8612"/>
</g>
</g>
</svg>

